<?xml version="1.0" encoding="utf-8"?>
<!-- Generator: Adobe Illustrator 19.0.0, SVG Export Plug-In . SVG Version: 6.00 Build 0)  -->
<svg version="1.1" id="Layer_2" xmlns="http://www.w3.org/2000/svg" xmlns:xlink="http://www.w3.org/1999/xlink" x="0px" y="0px"
	 viewBox="-174 312.9 246 216" style="enable-background:new -174 312.9 246 216;" xml:space="preserve">
<style type="text/css">
	.st0{fill:#00FE7A;}
	.st1{fill:#0985F6;}
</style>
<path class="st0" d="M-102.8,453.7l48.3,24.5l0.2,0.1l0.5,0.2l0.7,0.3l10.6,5.4c2.9,1.5,4,5,2.6,7.8c-1,2-3.1,3.2-5.2,3.2
	c-0.9,0-1.8-0.2-2.6-0.6l-11.3-5.8l-1.2-0.6l-0.4-0.2l-15.4-7.8l-1.4-0.7l-0.2-0.1l-18.3-9.3c10.4,21,25.9,35.6,46.2,43.7
	c14.9-5.9,27.3-15.4,36.9-28.4l-51.5-26.2l-42.7-21.7l-3.3-1.7l-9.8-5c-0.2-0.9-0.3-1.8-0.4-2.7c0,0,0,0,0-0.1c0-0.1,0-0.2,0-0.3
	c0-0.1,0-0.1,0-0.2c-0.4-2.9-0.7-5.6-1-8.2c0-0.2,0-0.5-0.1-0.7c0.5-0.4,1-0.8,1.6-1.1l0.6,0.3l10,5.1c0,0,0,0.1,0,0.2l4.7,2.4
	l0.3,0.2l0.3,0.1l0.6,0.3L-9,474.4c0,0,2.4,1.2,2.5,1.2c0,0,5,2.5,5,2.5c0,0,0,0,0,0c0,0,0,0,0.1,0c0,0,0,0,0.1,0c0,0,0.1,0,0.1,0
	c0,0,0.1,0,0.1,0.1c0,0,0.1,0,0.1,0.1c0,0,0.1,0,0.1,0.1c0.1,0,0.1,0.1,0.1,0.1c0.1,0,0.1,0.1,0.2,0.1c0.1,0,0.1,0.1,0.2,0.1
	c0.1,0,0.1,0.1,0.2,0.1c0.1,0,0.1,0.1,0.2,0.1l0.2,0.1c0.1,0,0.1,0.1,0.2,0.1c0.1,0,0.1,0.1,0.2,0.1c0.1,0,0.1,0.1,0.2,0.1
	c0.1,0,0.1,0.1,0.2,0.1c0.1,0,0.1,0.1,0.2,0.1c0.1,0,0.1,0.1,0.2,0.1c0.1,0,0.1,0.1,0.2,0.1c0.1,0,0.1,0.1,0.2,0.1
	c0.1,0,0.1,0.1,0.2,0.1c0.1,0,0.1,0.1,0.2,0.1c0.1,0,0.1,0.1,0.2,0.1l0.2,0.1c0.1,0,0.1,0.1,0.2,0.1c0.1,0,0.1,0.1,0.2,0.1
	c0.1,0,0.1,0.1,0.2,0.1c0,0,0.1,0,0.1,0.1c0,0,0.1,0,0.1,0.1l0.1,0.1c0,0,0.1,0,0.1,0c0,0,0.1,0,0.1,0c0,0,0,0,0.1,0c0,0,0,0,0,0
	c0,0,0,0,0,0c0,0.1,0,0.1,0,0.2c0,0,0,0,0,0.1c0,0.1-0.1,0.2-0.1,0.2c0,0,0,0,0,0.1c-0.1,0.1-0.1,0.3-0.2,0.4
	c-0.1,0.1-0.2,0.3-0.2,0.4c-0.1,0.1-0.2,0.3-0.2,0.4c-0.1,0.1-0.2,0.3-0.2,0.4c-0.1,0.1-0.2,0.3-0.2,0.4c-0.1,0.1-0.2,0.3-0.2,0.4
	c-0.1,0.1-0.2,0.3-0.2,0.4c-0.1,0.1-0.2,0.3-0.2,0.4c-0.1,0.1-0.2,0.3-0.2,0.4c-0.1,0.1-0.2,0.3-0.2,0.4c-0.1,0.1-0.2,0.3-0.2,0.4
	c0,0.1-0.1,0.1-0.1,0.2c0,0,0,0,0,0c-0.2,0.4-0.5,0.7-0.7,1.1c-11.9,18.1-28,31.2-47.9,38.5c-0.7,0.2-1.3,0.4-2,0.4
	c-0.7,0-1.4-0.1-2-0.4c-28.1-10.4-48.9-32.3-60.5-63.8c-0.2-0.5-0.4-1.1-0.6-1.6c0,0,0,0,0-0.1c-0.1-0.2-0.2-0.4-0.3-0.7
	c-0.9-2.6-1.8-5.4-2.6-8.1c-0.4-1.3-0.7-2.5-1-3.8c-0.1-0.4,0.3-0.8,0.7-0.6"/>
<line class="st0" x1="-53.9" y1="478.6" x2="-54.5" y2="478.2"/>
<polygon class="st0" points="-60.8,488.2 -77.5,479.6 -77.7,479.5 -96.1,470 -96.1,470 -96.1,470 -112.3,461.7 "/>
<path class="st1" d="M12,462c-0.1,0.2-0.2,0.4-0.3,0.6c-1,2-3.1,3.2-5.2,3.2c-0.9,0-1.8-0.2-2.6-0.6l-4.8-2.4l-2.7-1.4l-0.6-0.3
	l-0.6-0.3l-106-53.9l-8.5-4.3c-2.1-1.1-3.3-3.3-3.2-5.5c0,0,0-0.1,0-0.1c0-0.1,0-0.2,0-0.3c0-0.2,0-0.3,0.1-0.5c0-0.1,0-0.2,0.1-0.3
	c0-0.1,0.1-0.3,0.1-0.4c0-0.1,0.1-0.2,0.1-0.3c0.2-0.4,0.4-0.8,0.6-1.1c0.3-0.4,0.6-0.7,0.9-1c0,0,0.1-0.1,0.2-0.1c0,0,0,0,0,0
	c0.2-0.1,0.3-0.3,0.5-0.4c0.2-0.1,0.5-0.3,0.7-0.4l0.2-0.1c1.5-0.6,3.3-0.6,4.9,0.2l10.8,5.5L0.5,450.4l0.6,0.3l0.6,0.3l1.5,0.8
	l5.9,3C11.8,456.2,13,459.3,12,462"/>
<path class="st1" d="M-45.3,412.3c-0.9,0-1.8-0.2-2.6-0.6l-44.2-22.5c-2.9-1.5-4-5-2.6-7.8c1.5-2.9,5-4,7.8-2.6l44.2,22.5
	c2.9,1.5,4,5,2.6,7.8C-41.1,411.1-43.2,412.3-45.3,412.3"/>
<path class="st1" d="M9.1,427.6c-0.6,3.8-1.4,7.8-2.4,11.9l-19.6-9.9c-2-1-3.2-3-3.2-5.2v-63.1c0-18.6-15.2-33.8-33.8-33.8
	c-18.6,0-33.8,15.2-33.8,33.8V384c0,3.2-2.6,5.8-5.8,5.8c-1,0-1.9-0.2-2.6-0.6c-0.1,0-0.1-0.1-0.2-0.1c-0.2-0.1-0.3-0.2-0.5-0.3
	c-0.3-0.2-0.6-0.4-0.9-0.7c-0.1-0.1-0.2-0.2-0.3-0.3c0,0-0.1-0.1-0.1-0.1c-0.1-0.1-0.2-0.3-0.3-0.4c-0.1-0.2-0.2-0.3-0.3-0.5
	c-0.1-0.2-0.2-0.3-0.2-0.4c0-0.1-0.1-0.2-0.1-0.3c0,0,0-0.1-0.1-0.2c0-0.1,0-0.2-0.1-0.3c-0.1-0.3-0.2-0.7-0.2-1c0-0.2,0-0.4,0-0.6
	v-22.7c0-25.1,20.4-45.5,45.5-45.5c25.1,0,45.5,20.4,45.5,45.5v59.5L9.1,427.6z"/>
<path class="st1" d="M-16,376l-31.4-14.2c-1.5-0.7-3.3-0.7-4.8,0L-83.6,376l-4.9,2.2h0l-5.8,2.6h0l-0.9,0.4L-119,392l-0.2,0.1
	c-0.3,0.1-0.5,0.2-0.7,0.4c-0.2,0.1-0.4,0.3-0.5,0.4l0,0c-0.1,0-0.1,0.1-0.2,0.1c-0.2,0.2-0.3,0.3-0.5,0.5c-0.2,0.2-0.3,0.3-0.4,0.5
	c-0.2,0.3-0.5,0.7-0.6,1.1c0,0.1-0.1,0.2-0.1,0.3c0,0.1-0.1,0.3-0.1,0.4c0,0.1,0,0.2-0.1,0.3c0,0.2-0.1,0.3-0.1,0.5
	c0,0.1,0,0.2,0,0.3c0,0,0,0.1,0,0.1c-0.1,2.2,1.1,4.4,3.2,5.5l8.5,4.3c-0.1-2.3-0.1-4.2-0.1-5.7l7.7-3.5l14.7-6.7h0l13.6-6.1
	l25.1-11.3l33.8,15.3l11.6,5.3v-12.8L-16,376z M-47.4,361.8c-1.5-0.7-3.3-0.7-4.8,0L-83.6,376v4.4l8.7,4.4l25.1-11.3l33.8,15.3V376
	L-47.4,361.8z"/>
<path class="st1" d="M17.8,443.4l-0.3,0.9c0,0,0,0,0,0c-0.2,0.6-0.6,0.6-0.7,0.5c0,0-0.1,0-0.1,0l-7.9-4.3l-2-1
	c1-4.1,1.7-8.1,2.4-11.9c1.9-11.8,2.2-21.5,2.2-26.4l-15.7-7.1v-12.8L19.5,392c2,0.9,3.3,2.8,3.4,5C23,398,23.9,418.5,17.8,443.4"/>
<path class="st1" d="M-39.3,405.2c0,5.9-4.8,10.8-10.8,10.8c-5.9,0-10.8-4.8-10.8-10.8c0-5.9,4.8-10.8,10.8-10.8
	C-44.1,394.4-39.3,399.2-39.3,405.2"/>
<path class="st0" d="M-39.3,488.2c0,5.9-4.8,10.8-10.8,10.8c-5.9,0-10.8-4.8-10.8-10.8c0-5.9,4.8-10.8,10.8-10.8
	C-44.1,477.4-39.3,482.2-39.3,488.2"/>
<path class="st0" d="M-104.5,426.2c0,6-4.8,10.8-10.8,10.8c-1.5,0-2.9-0.3-4.2-0.9c-3.8-1.6-6.5-5.5-6.5-9.9c0-3.3,1.5-6.3,3.9-8.3
	c0.5-0.4,1-0.8,1.6-1.1c1.6-0.9,3.4-1.4,5.3-1.4c5.6,0,10.2,4.2,10.7,9.7C-104.6,425.5-104.5,425.8-104.5,426.2"/>
</svg>
