<?xml version="1.0" encoding="utf-8"?>
<!-- Generator: Adobe Illustrator 19.0.0, SVG Export Plug-In . SVG Version: 6.00 Build 0)  -->
<svg version="1.1" id="Layer_1" xmlns="http://www.w3.org/2000/svg" xmlns:xlink="http://www.w3.org/1999/xlink" x="0px" y="0px"
	 viewBox="0 0 484.3 204.3" style="enable-background:new 0 0 484.3 204.3;" xml:space="preserve">
<style type="text/css">
	.st0{fill:#71C064;}
	.st1{fill:#427DC0;}
	.st2{fill:#232962;}
</style>
<path class="st0" d="M361.8,132.4l41.4,21.1l0.2,0.1l0.4,0.2l0.6,0.3l9.1,4.6c2.5,1.3,3.5,4.3,2.2,6.7c-0.9,1.7-2.6,2.7-4.5,2.7
	c-0.8,0-1.5-0.2-2.3-0.5l-9.7-4.9l-1-0.5l-0.3-0.2l-13.2-6.7l-1.2-0.6l-0.2-0.1l-15.7-8c9,18,22.3,30.6,39.7,37.5
	c12.8-5.1,23.4-13.2,31.7-24.4l-44.3-22.5l-36.7-18.7l-2.9-1.5l-8.4-4.3c-0.1-0.8-0.2-1.5-0.4-2.3c0,0,0,0,0-0.1c0-0.1,0-0.2,0-0.3
	c0-0.1,0-0.1,0-0.2c-0.4-2.5-0.6-4.8-0.9-7c0-0.2,0-0.4-0.1-0.6c0.4-0.3,0.9-0.7,1.4-0.9l0.5,0.3l8.6,4.4c0,0,0,0.1,0,0.1l4,2.1
	l0.3,0.2l0.3,0.1l0.5,0.3l81.3,41.3c0,0,2.1,1.1,2.1,1.1c0,0,4.3,2.2,4.3,2.2c0,0,0,0,0,0c0,0,0,0,0,0c0,0,0,0,0.1,0
	c0,0,0.1,0,0.1,0c0,0,0.1,0,0.1,0c0,0,0.1,0,0.1,0.1c0,0,0.1,0,0.1,0.1c0,0,0.1,0,0.1,0.1c0,0,0.1,0,0.1,0.1c0,0,0.1,0,0.1,0.1
	c0.1,0,0.1,0.1,0.2,0.1c0.1,0,0.1,0.1,0.2,0.1l0.2,0.1c0.1,0,0.1,0.1,0.2,0.1c0.1,0,0.1,0.1,0.2,0.1c0.1,0,0.1,0.1,0.2,0.1
	c0.1,0,0.1,0.1,0.2,0.1c0.1,0,0.1,0.1,0.2,0.1c0.1,0,0.1,0.1,0.2,0.1c0.1,0,0.1,0.1,0.2,0.1c0.1,0,0.1,0.1,0.2,0.1
	c0.1,0,0.1,0.1,0.2,0.1c0.1,0,0.1,0.1,0.2,0.1c0.1,0,0.1,0.1,0.2,0.1l0.2,0.1c0.1,0,0.1,0.1,0.2,0.1c0,0,0.1,0,0.1,0.1
	c0,0,0.1,0,0.1,0.1c0,0,0.1,0,0.1,0.1c0,0,0.1,0,0.1,0.1l0.1,0c0,0,0.1,0,0.1,0c0,0,0,0,0.1,0c0,0,0,0,0.1,0c0,0,0,0,0,0
	c0,0,0,0,0,0c0,0,0,0.1,0,0.1c0,0,0,0,0,0.1c0,0.1-0.1,0.1-0.1,0.2c0,0,0,0,0,0.1c-0.1,0.1-0.1,0.2-0.2,0.3
	c-0.1,0.1-0.1,0.2-0.2,0.3c-0.1,0.1-0.1,0.2-0.2,0.3c-0.1,0.1-0.1,0.2-0.2,0.3c-0.1,0.1-0.1,0.2-0.2,0.3c-0.1,0.1-0.1,0.2-0.2,0.3
	c-0.1,0.1-0.1,0.2-0.2,0.3c-0.1,0.1-0.1,0.2-0.2,0.3c-0.1,0.1-0.1,0.2-0.2,0.3c-0.1,0.1-0.1,0.2-0.2,0.3c-0.1,0.1-0.1,0.2-0.2,0.3
	c0,0.1-0.1,0.1-0.1,0.2c0,0,0,0,0,0c-0.2,0.3-0.4,0.6-0.6,1c-10.2,15.6-24.1,26.8-41.1,33.1c-0.6,0.2-1.1,0.3-1.7,0.3
	c-0.6,0-1.2-0.1-1.7-0.3c-24.1-8.9-42-27.7-51.9-54.8c-0.2-0.5-0.3-0.9-0.5-1.4c0,0,0,0,0-0.1c-0.1-0.2-0.2-0.4-0.2-0.6
	c-0.8-2.3-1.5-4.6-2.2-7c-0.3-1.1-0.6-2.2-0.9-3.3c-0.1-0.4,0.3-0.6,0.6-0.5"/>
<line class="st0" x1="403.8" y1="153.8" x2="403.3" y2="153.5"/>
<polygon class="st0" points="397.9,162.1 383.5,154.7 383.4,154.6 367.6,146.5 367.6,146.5 367.6,146.5 353.7,139.3 "/>
<path class="st1" d="M460.4,139.6c-0.1,0.2-0.2,0.4-0.2,0.6c-0.9,1.7-2.6,2.7-4.5,2.7c-0.8,0-1.5-0.2-2.3-0.5l-4.1-2.1l-2.3-1.2
	l-0.5-0.3l-0.5-0.3l-91-46.3l-7.3-3.7c-1.8-0.9-2.8-2.8-2.7-4.7c0,0,0-0.1,0-0.1c0-0.1,0-0.2,0-0.3c0-0.1,0-0.3,0.1-0.4
	c0-0.1,0-0.2,0.1-0.3c0-0.1,0.1-0.2,0.1-0.3c0-0.1,0.1-0.2,0.1-0.3c0.1-0.3,0.3-0.7,0.5-1c0.2-0.3,0.5-0.6,0.8-0.9
	c0,0,0.1-0.1,0.1-0.1c0,0,0,0,0,0c0.2-0.1,0.3-0.2,0.5-0.3c0.2-0.1,0.4-0.2,0.6-0.3l0.1-0.1c1.3-0.6,2.8-0.5,4.2,0.2l9.3,4.7
	l89.1,45.3l0.5,0.3l0.5,0.3l1.3,0.7l5.1,2.6C460.3,134.6,461.3,137.3,460.4,139.6"/>
<path class="st1" d="M411.2,96.9c-0.8,0-1.5-0.2-2.3-0.5L371,77.1c-2.5-1.3-3.4-4.3-2.2-6.7c1.3-2.5,4.3-3.4,6.7-2.2l37.9,19.3
	c2.5,1.3,3.4,4.3,2.2,6.7C414.8,95.9,413,96.9,411.2,96.9"/>
<path class="st1" d="M457.9,110c-0.5,3.2-1.2,6.7-2,10.2l-16.8-8.5c-1.7-0.9-2.7-2.6-2.7-4.5V53.1c0-16-13-29-29-29
	c-16,0-29,13-29,29v19.5c0,2.8-2.2,5-5,5c-0.8,0-1.6-0.2-2.3-0.5c0,0-0.1,0-0.1-0.1c-0.1-0.1-0.3-0.1-0.4-0.2
	c-0.3-0.2-0.5-0.4-0.7-0.6c-0.1-0.1-0.2-0.2-0.3-0.3c0,0,0-0.1-0.1-0.1c-0.1-0.1-0.2-0.2-0.3-0.3c-0.1-0.1-0.2-0.3-0.3-0.4
	c-0.1-0.1-0.1-0.3-0.2-0.4c0-0.1-0.1-0.2-0.1-0.2c0,0,0-0.1,0-0.1c0-0.1,0-0.2-0.1-0.2c-0.1-0.3-0.1-0.6-0.2-0.9c0-0.2,0-0.3,0-0.5
	V53.1c0-21.5,17.5-39,39-39c21.5,0,39,17.5,39,39v51.1L457.9,110z"/>
<path class="st1" d="M436.4,65.8l-27-12.2c-1.3-0.6-2.8-0.6-4.1,0l-27,12.2l-4.2,1.9h0l-5,2.3h0l-0.8,0.3L348,79.5l-0.1,0.1
	c-0.2,0.1-0.4,0.2-0.6,0.3c-0.2,0.1-0.3,0.2-0.5,0.3l0,0c0,0-0.1,0.1-0.1,0.1c-0.1,0.1-0.3,0.3-0.4,0.4c-0.1,0.1-0.3,0.3-0.4,0.5
	c-0.2,0.3-0.4,0.6-0.5,1c0,0.1-0.1,0.2-0.1,0.3c0,0.1-0.1,0.2-0.1,0.3c0,0.1,0,0.2-0.1,0.3c0,0.1,0,0.3-0.1,0.4c0,0.1,0,0.2,0,0.3
	c0,0,0,0.1,0,0.1c-0.1,1.9,0.9,3.8,2.7,4.7l7.3,3.7c-0.1-2-0.1-3.6-0.1-4.9l6.6-3l12.6-5.7h0l11.7-5.3l21.5-9.7l29,13.1l10,4.5v-11
	L436.4,65.8z M409.4,53.6c-1.3-0.6-2.8-0.6-4.1,0l-27,12.2v3.8l7.5,3.8l21.5-9.7l29,13.1v-11L409.4,53.6z"/>
<path class="st1" d="M465.4,123.6l-0.2,0.8c0,0,0,0,0,0c-0.2,0.5-0.5,0.5-0.6,0.4c0,0-0.1,0-0.1,0l-6.8-3.7l-1.7-0.9
	c0.8-3.5,1.5-7,2-10.2c1.6-10.1,1.9-18.5,1.9-22.7l-13.5-6.1v-11l20.5,9.2c1.7,0.8,2.8,2.4,2.9,4.3
	C469.8,84.6,470.6,102.3,465.4,123.6"/>
<path class="st1" d="M416.4,90.8c0,5.1-4.1,9.2-9.2,9.2c-5.1,0-9.2-4.1-9.2-9.2c0-5.1,4.1-9.2,9.2-9.2
	C412.3,81.6,416.4,85.7,416.4,90.8"/>
<path class="st0" d="M416.4,162.1c0,5.1-4.1,9.2-9.2,9.2c-5.1,0-9.2-4.1-9.2-9.2c0-5.1,4.1-9.2,9.2-9.2
	C412.3,152.8,416.4,157,416.4,162.1"/>
<path class="st0" d="M360.4,108.8c0,5.1-4.1,9.3-9.3,9.3c-1.3,0-2.5-0.3-3.6-0.7c-3.3-1.4-5.6-4.7-5.6-8.5c0-2.9,1.3-5.4,3.4-7.1
	c0.4-0.3,0.9-0.7,1.4-0.9c1.3-0.8,2.9-1.2,4.5-1.2c4.8,0,8.7,3.6,9.2,8.3C360.3,108.2,360.4,108.5,360.4,108.8"/>
<path class="st2" d="M31,87.4c-2.1-0.6-3.6-1.3-4.7-2c-1-0.7-1.6-1.6-1.6-2.6c0-1.1,0.5-2,1.4-2.7c0.9-0.7,2.2-1,3.8-1
	c1.7,0,3,0.4,3.9,1.2c0.9,0.8,1.4,2,1.4,3.4h6.6c0-1.9-0.5-3.7-1.5-5.2c-1-1.5-2.4-2.7-4.2-3.5c-1.8-0.8-3.8-1.3-6.1-1.3
	c-2.3,0-4.3,0.4-6.2,1.1c-1.8,0.8-3.2,1.8-4.2,3.2c-1,1.4-1.5,2.9-1.5,4.6c0,3.4,1.8,6,5.5,8c1.3,0.7,3.2,1.5,5.5,2.2
	c2.3,0.7,3.9,1.5,4.8,2.1c0.9,0.7,1.3,1.6,1.3,2.9c0,1.1-0.4,2-1.3,2.7c-0.9,0.6-2.1,1-3.7,1c-4.3,0-6.4-1.8-6.4-5.3h-6.7
	c0,2.1,0.5,3.9,1.6,5.5c1.1,1.6,2.6,2.8,4.6,3.7c2,0.9,4.3,1.4,6.8,1.4c3.6,0,6.4-0.8,8.5-2.4c2.1-1.6,3.2-3.8,3.2-6.6
	c0-2.5-0.9-4.6-2.6-6.3C37.5,89.9,34.8,88.5,31,87.4"/>
<path class="st2" d="M66.8,85.3c-1.6-2.2-3.9-3.3-6.9-3.3c-2.5,0-4.5,0.9-6.1,2.8l-0.2-2.4h-5.9v33.1h6.4v-11.3
	c1.5,1.7,3.4,2.5,5.9,2.5c2.8,0,5.1-1.1,6.8-3.3c1.7-2.2,2.5-5.2,2.5-8.9v-0.3C69.2,90.4,68.4,87.4,66.8,85.3 M58.3,101.6
	c-2,0-3.4-0.8-4.2-2.4v-9.8c0.8-1.5,2.1-2.3,4.1-2.3c1.5,0,2.7,0.6,3.4,1.8c0.8,1.2,1.2,2.9,1.2,5.1
	C62.8,99.1,61.3,101.6,58.3,101.6"/>
<path class="st2" d="M94.4,100.8V90.5c0-2.7-0.9-4.8-2.6-6.3c-1.7-1.5-4.1-2.2-7-2.2c-1.9,0-3.7,0.3-5.3,1c-1.6,0.7-2.8,1.6-3.6,2.8
	c-0.9,1.2-1.3,2.5-1.3,3.9H81c0-0.9,0.3-1.6,0.9-2.1c0.6-0.5,1.4-0.8,2.5-0.8c1.2,0,2.1,0.3,2.7,1c0.6,0.7,0.9,1.5,0.9,2.7v1.4H85
	c-3.6,0-6.3,0.7-8.2,2C75,95.1,74,97.1,74,99.6c0,2.1,0.8,3.8,2.3,5.1c1.5,1.4,3.5,2,5.8,2c2.5,0,4.5-0.9,6-2.6
	c0.1,0.8,0.4,1.6,0.6,2.1h6.5V106C94.7,104.8,94.4,103.1,94.4,100.8 M87.9,99.6c-0.4,0.7-1,1.3-1.8,1.7c-0.8,0.4-1.7,0.6-2.6,0.6
	c-1,0-1.7-0.3-2.3-0.8c-0.6-0.5-0.8-1.2-0.8-2l0-0.4c0.2-2.2,1.9-3.3,5.1-3.3h2.4V99.6z"/>
<path class="st2" d="M113.9,100.7c-0.7,0.7-1.7,1-2.9,1c-1.5,0-2.7-0.5-3.4-1.6c-0.8-1.1-1.1-2.9-1.1-5.3V94c0-2.4,0.4-4.2,1.1-5.3
	c0.8-1.1,1.9-1.6,3.4-1.6c1.2,0,2.2,0.4,2.9,1.2c0.7,0.8,1.1,1.8,1.1,3h6c0-2.8-1-5.1-2.8-6.8c-1.8-1.7-4.2-2.6-7.2-2.6
	c-3.4,0-6.1,1.1-8.1,3.3c-2,2.2-2.9,5.1-2.9,8.8v0.4c0,3.8,1,6.8,3,9c2,2.2,4.7,3.3,8.1,3.3c1.8,0,3.5-0.4,5-1.1
	c1.5-0.8,2.7-1.8,3.6-3.1c0.9-1.4,1.3-2.8,1.3-4.5h-6C115,99.2,114.6,100,113.9,100.7"/>
<path class="st2" d="M147.3,93.9c0-3.8-0.9-6.7-2.8-8.8c-1.9-2.1-4.5-3.1-7.7-3.1c-2.2,0-4.1,0.5-5.8,1.5c-1.7,1-3,2.5-3.9,4.4
	c-0.9,1.9-1.4,4.1-1.4,6.5V95c0,3.6,1.1,6.4,3.3,8.6c2.2,2.2,5.1,3.2,8.6,3.2c2,0,3.8-0.4,5.4-1.1c1.6-0.8,2.9-1.8,3.9-3.2l-3.1-3.5
	c-1.4,1.8-3.3,2.7-5.8,2.7c-1.6,0-2.9-0.5-3.9-1.4c-1-1-1.7-2.2-1.9-3.8h15.2V93.9z M141.1,92.1h-8.9c0.2-1.6,0.7-2.8,1.5-3.7
	c0.8-0.9,1.8-1.3,3.1-1.3c1.4,0,2.4,0.4,3.1,1.2c0.7,0.8,1.1,1.9,1.2,3.3V92.1z"/>
<path class="st2" d="M178.8,87.4c-2.1-0.6-3.6-1.3-4.7-2s-1.6-1.6-1.6-2.6c0-1.1,0.5-2,1.4-2.7c0.9-0.7,2.2-1,3.8-1
	c1.7,0,3,0.4,3.9,1.2c0.9,0.8,1.4,2,1.4,3.4h6.6c0-1.9-0.5-3.7-1.5-5.2c-1-1.5-2.4-2.7-4.2-3.5s-3.8-1.3-6.1-1.3
	c-2.3,0-4.3,0.4-6.2,1.1c-1.8,0.8-3.2,1.8-4.2,3.2c-1,1.4-1.5,2.9-1.5,4.6c0,3.4,1.8,6,5.5,8c1.3,0.7,3.2,1.5,5.5,2.2
	c2.3,0.7,3.9,1.5,4.8,2.1c0.9,0.7,1.3,1.6,1.3,2.9c0,1.1-0.4,2-1.3,2.7c-0.9,0.6-2.1,1-3.7,1c-4.2,0-6.4-1.8-6.4-5.3h-6.7
	c0,2.1,0.5,3.9,1.6,5.5c1.1,1.6,2.6,2.8,4.7,3.7c2,0.9,4.3,1.4,6.8,1.4c3.6,0,6.4-0.8,8.5-2.4c2.1-1.6,3.2-3.8,3.2-6.6
	c0-2.5-0.9-4.6-2.6-6.3C185.3,89.9,182.6,88.5,178.8,87.4"/>
<path class="st2" d="M216.3,93.9c0-3.8-0.9-6.7-2.8-8.8c-1.9-2.1-4.5-3.1-7.7-3.1c-2.2,0-4.1,0.5-5.8,1.5c-1.7,1-3,2.5-4,4.4
	c-0.9,1.9-1.4,4.1-1.4,6.5V95c0,3.6,1.1,6.4,3.3,8.6c2.2,2.2,5.1,3.2,8.6,3.2c2,0,3.8-0.4,5.4-1.1c1.6-0.8,2.9-1.8,3.9-3.2l-3.1-3.5
	c-1.4,1.8-3.3,2.7-5.8,2.7c-1.6,0-2.9-0.5-4-1.4c-1-1-1.7-2.2-1.9-3.8h15.2V93.9z M210.1,92.1h-8.9c0.2-1.6,0.7-2.8,1.5-3.7
	c0.8-0.9,1.8-1.3,3.1-1.3c1.4,0,2.4,0.4,3.1,1.2c0.7,0.8,1.1,1.9,1.2,3.3V92.1z"/>
<path class="st2" d="M234.6,100.7c-0.7,0.7-1.7,1-2.9,1c-1.5,0-2.7-0.5-3.4-1.6c-0.8-1.1-1.1-2.9-1.1-5.3V94c0-2.4,0.4-4.2,1.1-5.3
	c0.8-1.1,1.9-1.6,3.4-1.6c1.2,0,2.2,0.4,2.9,1.2c0.7,0.8,1.1,1.8,1.1,3h6c0-2.8-0.9-5.1-2.8-6.8c-1.8-1.7-4.2-2.6-7.2-2.6
	c-3.4,0-6.1,1.1-8.1,3.3c-2,2.2-2.9,5.1-2.9,8.8v0.4c0,3.8,1,6.8,3,9c2,2.2,4.7,3.3,8.1,3.3c1.8,0,3.5-0.4,5-1.1
	c1.5-0.8,2.7-1.8,3.6-3.1c0.9-1.4,1.3-2.8,1.3-4.5h-6C235.7,99.2,235.3,100,234.6,100.7"/>
<path class="st2" d="M261.3,82.4v17c-0.8,1.5-2.3,2.3-4.5,2.3c-2.3,0-3.4-1.2-3.4-3.7V82.4H247v15.7c0,2.9,0.7,5,2.1,6.5
	c1.3,1.5,3.3,2.2,5.9,2.2c2.8,0,5-1,6.6-2.9l0.2,2.4h6V82.4H261.3z"/>
<path class="st2" d="M285.9,82c-2.3,0-4,1.1-5.3,3.3l-0.2-2.9h-6v23.9h6.4V90.7c0.8-1.6,2.3-2.5,4.8-2.5c0.7,0,1.4,0.1,2.3,0.2
	l0.1-6.1C287.2,82.1,286.6,82,285.9,82"/>
<path class="st2" d="M313.1,93.9c0-3.8-0.9-6.7-2.8-8.8c-1.9-2.1-4.5-3.1-7.7-3.1c-2.2,0-4.1,0.5-5.8,1.5c-1.7,1-3,2.5-3.9,4.4
	c-0.9,1.9-1.4,4.1-1.4,6.5V95c0,3.6,1.1,6.4,3.3,8.6c2.2,2.2,5.1,3.2,8.6,3.2c2,0,3.8-0.4,5.4-1.1c1.6-0.8,2.9-1.8,3.9-3.2l-3.1-3.5
	c-1.4,1.8-3.3,2.7-5.8,2.7c-1.6,0-2.9-0.5-4-1.4c-1-1-1.7-2.2-1.9-3.8h15.2V93.9z M306.8,92.1h-8.9c0.2-1.6,0.7-2.8,1.5-3.7
	c0.8-0.9,1.8-1.3,3.1-1.3c1.3,0,2.4,0.4,3.1,1.2c0.7,0.8,1.1,1.9,1.2,3.3V92.1z"/>
<path class="st2" d="M30.6,142.4c-0.9,0.8-2.3,1.2-4.1,1.2c-2,0-3.5-0.8-4.6-2.3c-1.1-1.5-1.6-3.6-1.6-6.3v-2.3
	c0-2.8,0.6-4.9,1.7-6.4c1.1-1.5,2.8-2.3,4.8-2.3c1.7,0,3,0.4,3.9,1.3c0.9,0.9,1.5,2.3,1.8,4.2h3.2c-0.3-2.5-1.2-4.5-2.7-6
	c-1.5-1.4-3.6-2.1-6.2-2.1c-1.9,0-3.6,0.5-5.1,1.4c-1.5,0.9-2.6,2.2-3.4,3.9c-0.8,1.7-1.2,3.7-1.2,5.9v2.3c0,3.4,0.9,6.2,2.6,8.2
	c1.7,2,4,3.1,6.9,3.1c2.6,0,4.7-0.7,6.3-2.1c1.6-1.4,2.5-3.4,2.8-5.9h-3.2C32.2,140.2,31.6,141.6,30.6,142.4"/>
<path class="st2" d="M56.5,127.9l-4.2,13.5l-4.5-13.5h-3.4l6.4,17.8l-0.7,1.8c-0.4,1.1-0.9,1.9-1.4,2.3c-0.6,0.4-1.4,0.6-2.4,0.6
	l-0.8-0.1v2.5l1.1,0.2l0.6,0c2.4,0,4.2-1.5,5.3-4.5l7.2-20.7H56.5z"/>
<path class="st2" d="M82.7,130.1c-1.2-1.6-3-2.5-5.1-2.5c-2.2,0-3.9,0.8-5.1,2.3v-9.5h-3.1v25.5h2.8l0.2-2.1c1.2,1.6,3,2.4,5.3,2.4
	c2.1,0,3.8-0.8,5.1-2.5c1.3-1.7,1.9-3.9,1.9-6.6v-0.3C84.5,134,83.9,131.7,82.7,130.1 M80.2,141.9c-0.8,1.1-2,1.7-3.4,1.7
	c-2,0-3.5-0.9-4.4-2.8V133c0.9-1.9,2.3-2.8,4.4-2.8c1.5,0,2.7,0.6,3.5,1.7c0.8,1.2,1.2,2.8,1.2,4.9C81.5,139,81,140.8,80.2,141.9"/>
<path class="st2" d="M109.7,136.5c0-2.9-0.6-5.1-1.9-6.6c-1.3-1.5-3.1-2.3-5.4-2.3c-1.4,0-2.8,0.4-4,1.2c-1.2,0.8-2.2,1.9-2.8,3.3
	s-1,3-1,4.8v0.6c0,2.7,0.8,4.8,2.3,6.4c1.5,1.6,3.5,2.4,5.9,2.4c3,0,5.3-1.1,6.8-3.5l-1.9-1.5c-0.6,0.7-1.2,1.3-2,1.8
	c-0.8,0.4-1.7,0.7-2.8,0.7c-1.5,0-2.8-0.5-3.8-1.6s-1.5-2.5-1.5-4.3h12.2V136.5z M106.6,135.3h-9c0.2-1.6,0.7-2.9,1.6-3.8
	c0.8-0.9,1.9-1.4,3.1-1.4c1.3,0,2.3,0.4,3.1,1.3s1.2,2.1,1.3,3.6V135.3z"/>
<path class="st2" d="M127.4,127.6c-1.9,0-3.3,0.8-4.3,2.4l0-2.1h-3v18h3.1v-12.8c0.7-1.7,2.1-2.6,4.1-2.6c0.5,0,1,0,1.5,0.1v-2.9
	C128.4,127.7,128,127.6,127.4,127.6"/>
<path class="st2" d="M163.5,136.5c-0.5-0.9-1.4-1.7-2.5-2.4c-1.1-0.7-2.7-1.3-4.7-1.9c-2-0.6-3.4-1.2-4.3-1.9
	c-0.8-0.7-1.3-1.5-1.3-2.5c0-1.2,0.4-2.2,1.3-2.9c0.9-0.7,2.1-1,3.7-1c1.7,0,3,0.4,3.9,1.3s1.4,2,1.4,3.5h3.2c0-1.3-0.4-2.6-1.1-3.7
	c-0.7-1.1-1.7-2-3-2.7c-1.3-0.6-2.8-1-4.4-1c-2.4,0-4.4,0.6-5.9,1.9c-1.5,1.3-2.3,2.8-2.3,4.7c0,1.7,0.6,3.1,1.9,4.2
	c1.2,1.1,3.2,2.1,6,2.9c2.2,0.6,3.7,1.3,4.5,1.9c0.8,0.6,1.2,1.6,1.2,2.8c0,1.2-0.5,2.1-1.3,2.8c-0.9,0.7-2.2,1-3.9,1
	c-1.8,0-3.3-0.4-4.3-1.3c-1.1-0.8-1.6-2-1.6-3.5h-3.2c0,1.4,0.4,2.7,1.2,3.8c0.8,1.1,1.9,2,3.3,2.6c1.4,0.6,3,1,4.7,1
	c2.5,0,4.6-0.6,6.1-1.8c1.5-1.2,2.3-2.8,2.3-4.7C164.3,138.5,164,137.4,163.5,136.5"/>
<path class="st2" d="M187.9,136.5c0-2.9-0.6-5.1-2-6.6c-1.3-1.5-3.1-2.3-5.4-2.3c-1.4,0-2.8,0.4-4,1.2c-1.2,0.8-2.2,1.9-2.9,3.3
	s-1,3-1,4.8v0.6c0,2.7,0.8,4.8,2.3,6.4c1.5,1.6,3.5,2.4,5.9,2.4c3,0,5.3-1.1,6.8-3.5l-1.9-1.5c-0.6,0.7-1.2,1.3-2,1.8
	s-1.7,0.7-2.8,0.7c-1.5,0-2.8-0.5-3.8-1.6c-1-1.1-1.5-2.5-1.5-4.3h12.2V136.5z M184.8,135.3h-9c0.2-1.6,0.7-2.9,1.6-3.8
	c0.8-0.9,1.9-1.4,3.1-1.4c1.3,0,2.3,0.4,3.1,1.3s1.2,2.1,1.3,3.6V135.3z"/>
<path class="st2" d="M208.4,142.7c-0.8,0.7-1.8,1-2.9,1c-1.6,0-2.8-0.6-3.7-1.7s-1.3-2.7-1.3-4.8v-0.6c0-2.1,0.4-3.8,1.3-4.9
	c0.9-1.1,2.1-1.7,3.6-1.7c1.2,0,2.1,0.4,2.9,1.1s1.2,1.7,1.3,2.9h2.9c-0.1-1.9-0.8-3.5-2.1-4.7c-1.3-1.2-3-1.8-5-1.8
	c-1.6,0-3.1,0.4-4.3,1.1c-1.2,0.8-2.1,1.8-2.8,3.2c-0.6,1.4-1,2.9-1,4.7v0.5c0,2.8,0.7,5.1,2.2,6.7c1.4,1.6,3.4,2.4,5.8,2.4
	c1.2,0,2.4-0.3,3.5-0.8c1.1-0.5,2-1.3,2.6-2.2c0.7-0.9,1-1.9,1.1-2.9h-2.9C209.6,141.2,209.2,142,208.4,142.7"/>
<path class="st2" d="M233.9,127.9V141c-0.8,1.8-2.3,2.6-4.7,2.6c-2.2,0-3.3-1.4-3.3-4.1v-11.6h-3.1v11.7c0,2.2,0.5,3.8,1.5,4.9
	c1,1.1,2.5,1.7,4.4,1.7c2.3,0,4.1-0.7,5.3-2.1l0.1,1.8h2.9v-18H233.9z"/>
<path class="st2" d="M255.8,127.6c-1.9,0-3.3,0.8-4.3,2.4l-0.1-2.1h-3v18h3.1v-12.8c0.7-1.7,2.1-2.6,4.1-2.6c0.5,0,1,0,1.5,0.1v-2.9
	C256.8,127.7,256.4,127.6,255.8,127.6"/>
<path class="st2" d="M267,145.9h3.1v-18H267V145.9z M269.9,121.9c-0.3-0.3-0.8-0.5-1.4-0.5c-0.6,0-1,0.2-1.3,0.5
	c-0.3,0.3-0.5,0.8-0.5,1.3s0.2,0.9,0.5,1.3c0.3,0.3,0.8,0.5,1.3,0.5c0.6,0,1.1-0.2,1.4-0.5c0.3-0.3,0.5-0.8,0.5-1.3
	S270.3,122.2,269.9,121.9"/>
<path class="st2" d="M288,143.6c-0.7,0-1.2-0.2-1.5-0.5c-0.3-0.4-0.5-0.9-0.5-1.6v-11.2h3.4v-2.4H286v-4.4h-3.1v4.4h-3.3v2.4h3.3
	v11.1c0,1.5,0.3,2.7,1.1,3.5c0.7,0.8,1.7,1.2,3.1,1.2c0.8,0,1.5-0.1,2.4-0.3v-2.5C288.8,143.5,288.3,143.6,288,143.6"/>
<path class="st2" d="M309.8,127.9l-4.2,13.5l-4.5-13.5h-3.3l6.4,17.8l-0.7,1.8c-0.4,1.1-0.9,1.9-1.4,2.3c-0.6,0.4-1.4,0.6-2.4,0.6
	l-0.8-0.1v2.5l1.1,0.2l0.6,0c2.4,0,4.2-1.5,5.3-4.5l7.2-20.7H309.8z"/>
</svg>
